# xmcd
#
# Track frame offsets:
# 150
# 22200
# 34500
# 49725
# 65475
# 79350
# 90300
# 105525
# 117375
# 129075
# 141150
# 155400
#
# Disc length: 2262 seconds
#
#
# Revision: 0
# Processed by: cddbd v1.5.1PL0 Copyright (c) Steve Scherf et al.
# Submitted via: FreeRIP 2.91 
#
DISCID=9908d40c
DTITLE=Richard Anthony - Voces de Oro
DYEAR=0060
DGENRE=Ballad
TTITLE0=En aranjuez con tu amor
TTITLE1=Las flechas del amor
TTITLE2=La nave del Olvido
TTITLE3=Jarabe chule
TTITLE4=A veces me pregunto
TTITLE5=Las chicas de hoy
TTITLE6=Al silbar el tren
TTITLE7=Tchin Tchin
TTITLE8=Mi mundo
TTITLE9=Ahora te puedes marchar
TTITLE10=Ecoute dans le vent
TTITLE11=Rose
EXTD=
EXTT0=
EXTT1=
EXTT2=
EXTT3=
EXTT4=
EXTT5=
EXTT6=
EXTT7=
EXTT8=
EXTT9=
EXTT10=
EXTT11=
PLAYORDER=
